<?xml version="1.0" encoding="UTF-8" standalone="no"?>
<svg
   xmlns:dc="http://purl.org/dc/elements/1.1/"
   xmlns:cc="http://creativecommons.org/ns#"
   xmlns:rdf="http://www.w3.org/1999/02/22-rdf-syntax-ns#"
   xmlns:svg="http://www.w3.org/2000/svg"
   xmlns="http://www.w3.org/2000/svg"
   xmlns:sodipodi="http://sodipodi.sourceforge.net/DTD/sodipodi-0.dtd"
   xmlns:inkscape="http://www.inkscape.org/namespaces/inkscape"
   version="1.1"
   id="Layer_1"
   width="48"
   height="48"
   viewBox="0 0 1126.5 1087.2"
   overflow="visible"
   xml:space="preserve"
   inkscape:version="0.48.4 r9939"
   sodipodi:docname="chambre.svg"
   style="overflow:visible"><metadata
   id="metadata3015"><rdf:RDF><cc:Work
       rdf:about=""><dc:format>image/svg+xml</dc:format><dc:type
         rdf:resource="http://purl.org/dc/dcmitype/StillImage" /></cc:Work></rdf:RDF></metadata><defs
   id="defs3013" /><sodipodi:namedview
   pagecolor="#ffffff"
   bordercolor="#666666"
   borderopacity="1"
   objecttolerance="10"
   gridtolerance="10"
   guidetolerance="10"
   inkscape:pageopacity="0"
   inkscape:pageshadow="2"
   inkscape:window-width="1366"
   inkscape:window-height="706"
   id="namedview3011"
   showgrid="false"
   inkscape:zoom="5.6016115"
   inkscape:cx="-22.705449"
   inkscape:cy="5"
   inkscape:window-x="-8"
   inkscape:window-y="-8"
   inkscape:window-maximized="1"
   inkscape:current-layer="Layer_1" />
<g
   id="XMLID_4_"
   transform="matrix(2.999856,0,0,2.999856,-0.49996401,204.65757)"
   style="fill:#84a1d9;fill-opacity:1">
	<g
   id="g3003"
   style="fill:#84a1d9;fill-opacity:1">
		<path
   d="m 375.25,0.25 c 0,75.33 0,150.67 0,226 -11,0 -22,0 -33,0 0,-10.33 0,-20.67 0,-31 -103.33,0 -206.67,0 -310,0 0,10.33 0,20.67 0,31 -10.67,0 -21.33,0 -32,0 0,-47.33 0,-94.67 0,-142 7.15,-7.84 25.29,-9.34 32,0 0,21 0,42 0,63 54.6,0 129.28,0 190,0 33.24,0 69.48,3.64 89,-8 15.41,-9.18 29.29,-26.54 31,-50 1.74,-23.88 0.09,-77.3 0,-82 -0.09,-4.66 3.98,-7 8.88,-7 0.04,0 0.08,0 0.12,0 8,0 16,0 24,0 z"
   id="path3005"
   inkscape:connector-curvature="0"
   style="fill:#84a1d9;fill-opacity:1" />
		<path
   d="m 223.25,106.25 c 12.23,5.04 28.42,11.79 27,24 -1.72,14.8 -30.15,10 -48,10 -50.29,0 -94.32,2.53 -145,0 -10.5,-0.52 -17.48,-2.27 -18,-11 -0.79,-13.15 25.23,-22.54 35,-26 17.15,-6.07 33.68,-7.76 53,-9 29.85,-1.919 71.34,1.84 96,12 z"
   id="path3007"
   inkscape:connector-curvature="0"
   style="fill:#84a1d9;fill-opacity:1" />
		<path
   d="m 315.25,118.25 c -4.36,5.24 -0.62,1.98 -21,17 -20.38,15.02 -36.37,0.7 -37,-4 -0.63,-4.7 -0.58,-11.98 1,-18 3.45,-13.13 17.51,-30.37 29,-39 5.2,-3.91 15.83,-9.66 21,-11 6.83,-1.77 15.99,-3.45 21,0 5.01,3.45 8.57,18.71 2,33 -4.63,10.081 -11.64,16.76 -16,22 z"
   id="path3009"
   inkscape:connector-curvature="0"
   style="fill:#84a1d9;fill-opacity:1" />
	</g>
</g>
</svg>